<?xml version="1.0" encoding="UTF-8" standalone="no"?>
<!DOCTYPE svg PUBLIC "-//W3C//DTD SVG 1.1//EN"
 "http://www.w3.org/Graphics/SVG/1.1/DTD/svg11.dtd">
<!-- Generated by graphviz version 3.0.0 (20220226.1711)
 -->
<!-- Title: G Pages: 1 -->
<svg width="355pt" height="1014pt"
 viewBox="0.00 0.00 354.79 1014.00" xmlns="http://www.w3.org/2000/svg" xmlns:xlink="http://www.w3.org/1999/xlink">
<g id="graph0" class="graph" transform="scale(1 1) rotate(0) translate(4 1010)">
<title>G</title>
<polygon fill="white" stroke="transparent" points="-4,4 -4,-1010 350.79,-1010 350.79,4 -4,4"/>
<g id="clust1" class="cluster">
<title>cluster_Global</title>
<polygon fill="none" stroke="black" points="8,-8 8,-998 338.79,-998 338.79,-8 8,-8"/>
<text text-anchor="middle" x="173.4" y="-985.2" font-family="Times,serif" font-size="11.00" fill="gray">Global</text>
</g>
<!-- \\X_Admin -->
<g id="node1" class="node">
<title>\\X_Admin</title>
<polygon fill="none" stroke="black" points="297.29,-970 233.29,-970 233.29,-934 297.29,-934 297.29,-970"/>
<text text-anchor="middle" x="265.29" y="-949.2" font-family="Courier,monospace" font-size="11.00">X_Admin</text>
</g>
<!-- \\X_Current_View -->
<g id="node2" class="node">
<title>\\X_Current_View</title>
<polygon fill="none" stroke="black" points="320.79,-916 209.79,-916 209.79,-880 320.79,-880 320.79,-916"/>
<text text-anchor="middle" x="265.29" y="-895.2" font-family="Courier,monospace" font-size="11.00">X_Current_View</text>
</g>
<!-- \\X_Db -->
<g id="node3" class="node">
<title>\\X_Db</title>
<polygon fill="none" stroke="black" points="292.29,-862 238.29,-862 238.29,-826 292.29,-826 292.29,-862"/>
<text text-anchor="middle" x="265.29" y="-841.2" font-family="Courier,monospace" font-size="11.00">X_Db</text>
</g>
<!-- \\X_Delete -->
<g id="node4" class="node">
<title>\\X_Delete</title>
<polygon fill="none" stroke="black" points="300.79,-808 229.79,-808 229.79,-772 300.79,-772 300.79,-808"/>
<text text-anchor="middle" x="265.29" y="-787.2" font-family="Courier,monospace" font-size="11.00">X_Delete</text>
</g>
<!-- \\X_Model -->
<g id="node10" class="node">
<title>\\X_Model</title>
<polygon fill="none" stroke="black" points="103.9,-700 39.9,-700 39.9,-664 103.9,-664 103.9,-700"/>
<text text-anchor="middle" x="71.9" y="-679.2" font-family="Courier,monospace" font-size="11.00">X_Model</text>
</g>
<!-- \\X_Delete&#45;&gt;\\X_Model -->
<g id="edge1" class="edge">
<title>\\X_Delete&#45;&gt;\\X_Model</title>
<path fill="none" stroke="black" d="M229.64,-776.78C219.83,-772.69 209.25,-767.95 199.79,-763 167.06,-745.87 131.79,-722.96 106.77,-705.88"/>
<polygon fill="none" stroke="black" points="108.58,-702.88 98.36,-700.1 104.62,-708.65 108.58,-702.88"/>
</g>
<!-- \\X_Functions -->
<g id="node5" class="node">
<title>\\X_Functions</title>
<polygon fill="none" stroke="black" points="310.79,-754 219.79,-754 219.79,-718 310.79,-718 310.79,-754"/>
<text text-anchor="middle" x="265.29" y="-733.2" font-family="Courier,monospace" font-size="11.00">X_Functions</text>
</g>
<!-- \\X_Get -->
<g id="node6" class="node">
<title>\\X_Get</title>
<polygon fill="none" stroke="black" points="292.29,-700 238.29,-700 238.29,-664 292.29,-664 292.29,-700"/>
<text text-anchor="middle" x="265.29" y="-679.2" font-family="Courier,monospace" font-size="11.00">X_Get</text>
</g>
<!-- \\X_Get&#45;&gt;\\X_Model -->
<g id="edge2" class="edge">
<title>\\X_Get&#45;&gt;\\X_Model</title>
<path fill="none" stroke="black" d="M238.08,-682C206.17,-682 151.89,-682 114.31,-682"/>
<polygon fill="none" stroke="black" points="114.18,-678.5 104.18,-682 114.18,-685.5 114.18,-678.5"/>
</g>
<!-- \\X_Hook -->
<g id="node7" class="node">
<title>\\X_Hook</title>
<polygon fill="none" stroke="black" points="293.79,-484 236.79,-484 236.79,-448 293.79,-448 293.79,-484"/>
<text text-anchor="middle" x="265.29" y="-463.2" font-family="Courier,monospace" font-size="11.00">X_Hook</text>
</g>
<!-- Iterator -->
<g id="node20" class="node">
<title>Iterator</title>
<ellipse fill="none" stroke="black" cx="71.9" cy="-493" rx="36.29" ry="18"/>
<text text-anchor="middle" x="71.9" y="-489.3" font-family="Times,serif" font-size="14.00" fill="gray">Iterator</text>
</g>
<!-- \\X_Hook&#45;&gt;Iterator -->
<g id="edge3" class="edge">
<title>\\X_Hook&#45;&gt;Iterator</title>
<path fill="none" stroke="black" stroke-dasharray="1,5" d="M236.46,-469.93C205.19,-474.34 153.99,-481.56 117.2,-486.75"/>
<polygon fill="none" stroke="black" points="116.65,-483.29 107.24,-488.16 117.63,-490.22 116.65,-483.29"/>
</g>
<!-- ArrayAccess -->
<g id="node21" class="node">
<title>ArrayAccess</title>
<ellipse fill="none" stroke="black" cx="71.9" cy="-439" rx="55.79" ry="18"/>
<text text-anchor="middle" x="71.9" y="-435.3" font-family="Times,serif" font-size="14.00" fill="gray">ArrayAccess</text>
</g>
<!-- \\X_Hook&#45;&gt;ArrayAccess -->
<g id="edge4" class="edge">
<title>\\X_Hook&#45;&gt;ArrayAccess</title>
<path fill="none" stroke="black" stroke-dasharray="1,5" d="M236.46,-462.07C209.57,-458.28 167.94,-452.41 133.41,-447.54"/>
<polygon fill="none" stroke="black" points="133.81,-444.06 123.42,-446.13 132.83,-450.99 133.81,-444.06"/>
</g>
<!-- \\X_Hooks -->
<g id="node8" class="node">
<title>\\X_Hooks</title>
<polygon fill="none" stroke="black" points="297.29,-592 233.29,-592 233.29,-556 297.29,-556 297.29,-592"/>
<text text-anchor="middle" x="265.29" y="-571.2" font-family="Courier,monospace" font-size="11.00">X_Hooks</text>
</g>
<!-- \\X_Install -->
<g id="node9" class="node">
<title>\\X_Install</title>
<polygon fill="none" stroke="black" points="303.79,-538 226.79,-538 226.79,-502 303.79,-502 303.79,-538"/>
<text text-anchor="middle" x="265.29" y="-517.2" font-family="Courier,monospace" font-size="11.00">X_Install</text>
</g>
<!-- \\X_Post -->
<g id="node11" class="node">
<title>\\X_Post</title>
<polygon fill="none" stroke="black" points="293.79,-646 236.79,-646 236.79,-610 293.79,-610 293.79,-646"/>
<text text-anchor="middle" x="265.29" y="-625.2" font-family="Courier,monospace" font-size="11.00">X_Post</text>
</g>
<!-- \\X_Post&#45;&gt;\\X_Model -->
<g id="edge5" class="edge">
<title>\\X_Post&#45;&gt;\\X_Model</title>
<path fill="none" stroke="black" d="M236.46,-635.85C204.24,-644.94 150.87,-660 113.9,-670.43"/>
<polygon fill="none" stroke="black" points="112.61,-667.16 103.94,-673.24 114.51,-673.9 112.61,-667.16"/>
</g>
<!-- \\X_Router -->
<g id="node12" class="node">
<title>\\X_Router</title>
<polygon fill="none" stroke="black" points="300.79,-430 229.79,-430 229.79,-394 300.79,-394 300.79,-430"/>
<text text-anchor="middle" x="265.29" y="-409.2" font-family="Courier,monospace" font-size="11.00">X_Router</text>
</g>
<!-- \\X_Sanitize -->
<g id="node13" class="node">
<title>\\X_Sanitize</title>
<polygon fill="none" stroke="black" points="307.29,-376 223.29,-376 223.29,-340 307.29,-340 307.29,-376"/>
<text text-anchor="middle" x="265.29" y="-355.2" font-family="Courier,monospace" font-size="11.00">X_Sanitize</text>
</g>
<!-- \\X_Setup -->
<g id="node14" class="node">
<title>\\X_Setup</title>
<polygon fill="none" stroke="black" points="297.29,-322 233.29,-322 233.29,-286 297.29,-286 297.29,-322"/>
<text text-anchor="middle" x="265.29" y="-301.2" font-family="Courier,monospace" font-size="11.00">X_Setup</text>
</g>
<!-- \\X_Template_Loader -->
<g id="node15" class="node">
<title>\\X_Template_Loader</title>
<polygon fill="none" stroke="black" points="330.79,-268 199.79,-268 199.79,-232 330.79,-232 330.79,-268"/>
<text text-anchor="middle" x="265.29" y="-247.2" font-family="Courier,monospace" font-size="11.00">X_Template_Loader</text>
</g>
<!-- \\X_Validate -->
<g id="node16" class="node">
<title>\\X_Validate</title>
<polygon fill="none" stroke="black" points="307.29,-214 223.29,-214 223.29,-178 307.29,-178 307.29,-214"/>
<text text-anchor="middle" x="265.29" y="-193.2" font-family="Courier,monospace" font-size="11.00">X_Validate</text>
</g>
<!-- \\X_File_Not_Found -->
<g id="node17" class="node">
<title>\\X_File_Not_Found</title>
<polygon fill="none" stroke="black" points="327.79,-160 202.79,-160 202.79,-124 327.79,-124 327.79,-160"/>
<text text-anchor="middle" x="265.29" y="-139.2" font-family="Courier,monospace" font-size="11.00">X_File_Not_Found</text>
</g>
<!-- Exception -->
<g id="node22" class="node">
<title>Exception</title>
<ellipse fill="none" stroke="black" cx="71.9" cy="-142" rx="46.29" ry="18"/>
<text text-anchor="middle" x="71.9" y="-138.3" font-family="Times,serif" font-size="14.00" fill="gray">Exception</text>
</g>
<!-- \\X_File_Not_Found&#45;&gt;Exception -->
<g id="edge6" class="edge">
<title>\\X_File_Not_Found&#45;&gt;Exception</title>
<path fill="none" stroke="black" d="M202.68,-142C178.78,-142 151.63,-142 128.36,-142"/>
<polygon fill="none" stroke="black" points="128.3,-138.5 118.3,-142 128.3,-145.5 128.3,-138.5"/>
</g>
<!-- \\X_File -->
<g id="node18" class="node">
<title>\\X_File</title>
<polygon fill="none" stroke="black" points="293.79,-106 236.79,-106 236.79,-70 293.79,-70 293.79,-106"/>
<text text-anchor="middle" x="265.29" y="-85.2" font-family="Courier,monospace" font-size="11.00">X_File</text>
</g>
<!-- \\X_Relationship -->
<g id="node19" class="node">
<title>\\X_Relationship</title>
<polygon fill="none" stroke="black" points="320.79,-52 209.79,-52 209.79,-16 320.79,-16 320.79,-52"/>
<text text-anchor="middle" x="265.29" y="-31.2" font-family="Courier,monospace" font-size="11.00">X_Relationship</text>
</g>
</g>
</svg>
