<?xml version="1.0" encoding="UTF-8"?>
<svg id="Layer_2" data-name="Layer 2" xmlns="http://www.w3.org/2000/svg" viewBox="0 0 666 666">
  <g id="Layer_1-2" data-name="Layer 1">
    <rect width="666" height="666" style="fill: #fff;"/>
    <path d="M333,111.12c-92.89,0-172.44,57.1-205.5,138.1,91.92,78.04,159.27,184.12,188.83,305.03,5.5,.41,11.06,.62,16.67,.62s11.16-.21,16.67-.62c29.56-120.92,96.91-227,188.83-305.03-33.06-81.01-112.61-138.1-205.5-138.1Zm-104.59,185.51c-19.1-7.79-32.56-26.55-32.56-48.44s13.46-40.65,32.56-48.44c18.4,21.67,43.4,37.55,71.91,44.51,.1,1.3,.15,2.61,.15,3.93s-.05,2.63-.15,3.93c-28.5,6.97-53.51,22.84-71.91,44.51Zm104.59,88.7c-21.9,0-40.65-13.46-48.44-32.56,21.67-18.4,37.55-43.4,44.51-71.91,1.3-.1,2.61-.15,3.93-.15s2.63,.05,3.93,.15c6.97,28.5,22.84,53.51,44.51,71.91-7.79,19.1-26.55,32.56-48.44,32.56Zm104.59-88.7c-18.4-21.67-43.4-37.55-71.91-44.51-.1-1.3-.15-2.61-.15-3.93s.05-2.63,.15-3.93c28.5-6.97,53.51-22.84,71.91-44.51,19.1,7.79,32.56,26.55,32.56,48.44s-13.46,40.65-32.56,48.44Z" style="fill: #0269ac;"/>
  </g>
</svg>